<?xml version="1.0" encoding="UTF-8" standalone="no"?>
<svg
   xmlns:dc="http://purl.org/dc/elements/1.1/"
   xmlns:cc="http://creativecommons.org/ns#"
   xmlns:rdf="http://www.w3.org/1999/02/22-rdf-syntax-ns#"
   xmlns:svg="http://www.w3.org/2000/svg"
   xmlns="http://www.w3.org/2000/svg"
   xmlns:sodipodi="http://sodipodi.sourceforge.net/DTD/sodipodi-0.dtd"
   xmlns:inkscape="http://www.inkscape.org/namespaces/inkscape"
   version="1.1"
   id="Camada_1"
   x="0px"
   y="0px"
   viewBox="-367 235.6 999.99997 434.89514"
   xml:space="preserve"
   sodipodi:docname="Samsung_Galaxy_2018_logo.svg"
   width="1000"
   height="434.89514"
   inkscape:version="1.0.2 (e86c870879, 2021-01-15)"><metadata
   id="metadata15"><rdf:RDF><cc:Work
       rdf:about=""><dc:format>image/svg+xml</dc:format><dc:type
         rdf:resource="http://purl.org/dc/dcmitype/StillImage" /><dc:title /></cc:Work></rdf:RDF></metadata><defs
   id="defs13">
	

		
	</defs><sodipodi:namedview
   pagecolor="#ffffff"
   bordercolor="#666666"
   borderopacity="1"
   objecttolerance="10"
   gridtolerance="10"
   guidetolerance="10"
   inkscape:pageopacity="0"
   inkscape:pageshadow="2"
   inkscape:window-width="1366"
   inkscape:window-height="705"
   id="namedview11"
   showgrid="false"
   inkscape:zoom="0.65001618"
   inkscape:cx="456.19135"
   inkscape:cy="187.73919"
   inkscape:window-x="-8"
   inkscape:window-y="-8"
   inkscape:window-maximized="1"
   inkscape:current-layer="Camada_1"
   inkscape:document-rotation="0" />
<style
   type="text/css"
   id="style2">
	.st0{fill:#221F20;}
</style>


<style
   type="text/css"
   id="style2-4">
	.st0{fill:#FFFFFF;}
	.st1{fill:#0066B2;}
	.st2{fill:#00A551;}
	.st3{fill:#EC1C24;}
	.st4{fill:#231F20;}
	.st5{fill:#221F1F;}
</style><g
   id="g907"
   transform="matrix(0.99778279,0,0,0.99778279,-0.81371607,0.52237468)"><path
     d="m -290.572,619.03073 c 44.16289,0 71.99155,-34.08003 71.99155,-73.80646 v -10.88948 h -76.428 v 26.21541 h 46.98608 c -5.44474,19.35907 -20.1657,31.86181 -42.54963,31.86181 -28.63529,0 -49.2043,-21.77896 -49.2043,-49.00265 0,-26.61873 20.77067,-49.00265 48.19602,-49.00265 19.15741,0 33.2734,8.46959 42.54963,25.61043 l 24.19883,-14.5193 c -12.50273,-22.18227 -36.49991,-37.70986 -66.95012,-37.70986 -43.55791,0 -75.21806,33.67672 -75.21806,75.62138 0,40.93637 30.45021,75.62137 76.428,75.62137 z"
     style="font-style:normal;font-variant:normal;font-weight:bold;font-stretch:normal;font-size:201.657px;font-family:'Samsung Sharp Sans';-inkscape-font-specification:'Samsung Sharp Sans Bold';letter-spacing:1.63px;fill:#000000;stroke-width:3.81085"
     id="path983" /><path
     d="m -147.45377,619.43404 c 15.52759,0 29.64358,-6.65468 38.31483,-17.74581 v 15.32593 h 27.223693 V 499.04482 h -27.223693 v 14.11599 c -8.67125,-10.28451 -22.38393,-16.53588 -37.91152,-16.53588 -29.84523,0 -58.48053,22.38393 -58.48053,61.50539 0,38.71814 29.64358,61.30372 58.07722,61.30372 z m 4.43645,-25.00546 c -20.1657,0 -35.69329,-16.13256 -35.69329,-36.70158 0,-20.36735 15.52759,-36.29826 35.69329,-36.29826 20.36736,0 35.28998,16.13256 35.28998,36.29826 0,20.36736 -14.92262,36.70158 -35.28998,36.70158 z"
     style="font-style:normal;font-variant:normal;font-weight:bold;font-stretch:normal;font-size:201.657px;font-family:'Samsung Sharp Sans';-inkscape-font-specification:'Samsung Sharp Sans Bold';letter-spacing:1.63px;fill:#000000;stroke-width:3.81085"
     id="path985" /><path
     d="m -63.13399,617.01416 h 27.425352 V 467.78798 H -63.13399 Z"
     style="font-style:normal;font-variant:normal;font-weight:bold;font-stretch:normal;font-size:201.657px;font-family:'Samsung Sharp Sans';-inkscape-font-specification:'Samsung Sharp Sans Bold';letter-spacing:1.63px;fill:#000000;stroke-width:3.81085"
     id="path987" /><path
     d="m 36.357226,619.43404 c 15.527589,0 29.643578,-6.65468 38.314829,-17.74581 v 15.32593 H 101.89575 V 499.04482 H 74.672055 v 14.11599 C 66.000804,502.8763 52.288129,496.62493 36.76054,496.62493 c -29.8452359,0 -58.48053,22.38393 -58.48053,61.50539 0,38.71814 29.6435791,61.30372 58.077216,61.30372 z m 4.436454,-25.00546 c -20.1657,0 -35.6932889,-16.13256 -35.6932889,-36.70158 0,-20.36735 15.5275889,-36.29826 35.6932889,-36.29826 20.367356,0 35.289974,16.13256 35.289974,36.29826 0,20.36736 -14.922618,36.70158 -35.289974,36.70158 z"
     style="font-style:normal;font-variant:normal;font-weight:bold;font-stretch:normal;font-size:201.657px;font-family:'Samsung Sharp Sans';-inkscape-font-specification:'Samsung Sharp Sans Bold';letter-spacing:1.63px;fill:#000000;stroke-width:3.81085"
     id="path989" /><path
     d="m 109.96901,617.01416 h 33.2734 l 28.03033,-39.32311 28.83695,39.32311 h 33.2734 l -45.17117,-59.69047 42.34797,-58.27887 h -32.26512 l -26.61872,37.5082 -26.82038,-37.5082 h -33.2734 l 42.75128,57.87555 z"
     style="font-style:normal;font-variant:normal;font-weight:bold;font-stretch:normal;font-size:201.657px;font-family:'Samsung Sharp Sans';-inkscape-font-specification:'Samsung Sharp Sans Bold';letter-spacing:1.63px;fill:#000000;stroke-width:3.81085"
     id="path991" /><path
     d="m 256.87587,671.46155 h 27.62701 l 70.3783,-172.41673 h -28.6353 l -31.05518,79.45285 -32.87009,-79.45285 h -29.0386 l 48.39768,112.12129 z"
     style="font-style:normal;font-variant:normal;font-weight:bold;font-stretch:normal;font-size:201.657px;font-family:'Samsung Sharp Sans';-inkscape-font-specification:'Samsung Sharp Sans Bold';letter-spacing:1.63px;fill:#000000;stroke-width:3.81085"
     id="path993" /><polygon
     transform="matrix(15.004662,0,0,15.004662,-545.47973,84.698103)"
     style="fill:#000000;fill-opacity:1"
     id="polygon16"
     points="69.541,10.356 69.541,19.669 66.191,19.669 63.866,12.026 63.816,12.026 63.945,19.669 61.63,19.669 61.63,10.356 65.125,10.356 67.288,17.745 67.34,17.745 67.211,10.356 " /><polygon
     transform="matrix(15.004662,0,0,15.004662,-545.47973,84.698103)"
     style="fill:#000000;fill-opacity:1"
     id="polygon18"
     points="26.294,19.767 25.04,11.228 24.987,11.228 23.698,19.767 21.157,19.767 22.902,10.356 27.088,10.356 28.825,19.767 " /><polygon
     transform="matrix(15.004662,0,0,15.004662,-545.47973,84.698103)"
     style="fill:#000000;fill-opacity:1"
     id="polygon20"
     points="34.75,10.356 35.912,17.55 35.962,17.55 37.125,10.356 40.963,10.356 41.167,19.767 38.815,19.767 38.753,11.306 38.704,11.306 37.131,19.767 34.743,19.767 33.169,11.306 33.118,11.306 33.059,19.767 30.702,19.767 30.91,10.356 " /><path
     style="fill:#000000;fill-opacity:1;stroke-width:1.36581"
     inkscape:connector-curvature="0"
     id="path22"
     d="m -287.48957,341.45789 c 1.38044,3.42106 0.9603,7.81743 0.31511,10.47326 -1.18538,4.69645 -4.36637,9.48294 -13.75928,9.48294 -8.85276,0 -14.22443,-5.07158 -14.22443,-12.82899 v -13.66925 h -37.87177 l -0.0301,10.9384 c 0,31.47979 24.78771,40.97775 51.34596,40.97775 25.53794,0 46.57447,-8.73272 49.92052,-32.26003 1.71053,-12.1988 0.43513,-20.18128 -0.15006,-23.19721 -5.95684,-29.55919 -59.55349,-38.38193 -63.54474,-54.91707 -0.67522,-2.83588 -0.48015,-5.83681 -0.15005,-7.44231 0.97531,-4.5014 4.06627,-9.46794 12.90401,-9.46794 8.25257,0 13.12909,5.10158 13.12909,12.81398 0,2.59581 0,8.71771 0,8.71771 h 35.21594 v -9.91808 c 0,-30.75956 -27.60858,-35.56105 -47.6098,-35.56105 -25.11781,0 -45.64418,8.29757 -49.39535,31.28472 -1.02031,6.34697 -1.17036,12.00373 0.3151,19.08593 6.16692,28.85396 56.32751,37.21156 63.58976,55.48724 z" /><path
     style="fill:#000000;fill-opacity:1;stroke-width:1.36581"
     inkscape:connector-curvature="0"
     id="path24"
     d="m 171.68311,341.20281 c 1.39544,3.39105 0.9453,7.66738 0.3151,10.32321 -1.15536,4.68145 -4.30634,9.39292 -13.63924,9.39292 -8.73271,0 -14.05937,-5.07158 -14.05937,-12.64893 l -0.03,-13.54921 h -37.4817 l -0.0451,10.78835 c 0,31.16468 24.56262,40.57261 50.8508,40.57261 25.26784,0 46.10931,-8.61268 49.39534,-31.92992 1.71054,-12.10877 0.49516,-19.98622 -0.12006,-22.94213 -5.92683,-29.28911 -58.98332,-38.02182 -62.92954,-54.39191 -0.67521,-2.82087 -0.48015,-5.7918 -0.13507,-7.30727 1.00531,-4.5314 4.03626,-9.37791 12.78397,-9.37791 8.17755,0 12.94903,4.98155 12.94903,12.63392 0,2.5658 0,8.62769 0,8.62769 h 34.94585 v -9.81305 c 0,-30.42946 -27.38351,-35.20094 -47.18966,-35.20094 -24.83272,0 -45.19405,8.19254 -48.87019,31.01464 -1.02031,6.25694 -1.12534,11.80867 0.33011,18.86086 6.07689,28.55387 55.74231,36.85145 62.92956,54.94707 z" /><path
     style="fill:#000000;fill-opacity:1;stroke-width:1.36581"
     inkscape:connector-curvature="0"
     id="path26"
     d="m 290.29497,360.16871 c 9.79804,0 12.859,-6.78211 13.5342,-10.24819 0.28509,-1.53048 0.36011,-3.57111 0.3301,-5.40168 V 240.02637 h 35.7111 v 101.29648 c 0.075,2.5958 -0.18005,7.93747 -0.30009,9.27288 -2.50578,26.36319 -23.34727,34.91584 -49.29032,34.91584 -25.97308,0 -46.82956,-8.55265 -49.30532,-34.91584 -0.12006,-1.33541 -0.37511,-6.67708 -0.30008,-9.27288 V 240.02637 h 35.68107 v 104.49247 c 0,1.83057 0.06,3.88621 0.33011,5.40168 0.76524,3.46608 3.73615,10.24819 13.60923,10.24819 z" /><path
     style="fill:#000000;fill-opacity:1;stroke-width:1.36581"
     inkscape:connector-curvature="0"
     id="path28"
     d="m 584.8665,358.68324 c 10.23318,0 13.80429,-6.46701 14.46449,-10.23318 0.25508,-1.6205 0.33011,-3.58611 0.3151,-5.37167 v -20.49637 h -14.4945 v -20.6164 h 50.07055 v 37.90178 c -0.03,2.64081 -0.09,4.59143 -0.51016,9.30288 -2.35573,25.68799 -24.63765,34.85584 -49.66543,34.85584 -25.07278,0 -47.32471,-9.16785 -49.71044,-34.85584 -0.40513,-4.71145 -0.46515,-6.66207 -0.51016,-9.30288 l 0.03,-59.46348 c 0,-2.50578 0.3151,-6.94716 0.58518,-9.30289 3.13598,-26.3932 24.53263,-34.88584 49.60541,-34.88584 25.04279,0 46.9646,8.44762 49.5604,34.88584 0.46516,4.5014 0.31511,9.30289 0.31511,9.30289 v 4.71146 h -35.60607 v -7.90745 c 0.0301,0.015 -0.0451,-3.36105 -0.46513,-5.37167 -0.6002,-3.12097 -3.31604,-10.2932 -14.07437,-10.2932 -10.29321,0 -13.30914,6.7821 -14.05937,10.2932 -0.43515,1.86058 -0.60019,4.38136 -0.60019,6.66207 v 64.58006 c -0.03,1.78556 0.075,3.75117 0.36011,5.37167 0.61518,3.78118 4.1713,10.23318 14.38947,10.23318 z" /></g></svg>
